{"title":"Hoe tem je een Draak-AC3-XviD-DVDRip[Ned]2010 2Lions-Team","uid":5920096,"size":1463585216,"categoryP":"video","categoryS":"movies","magnet":"?xt=urn:btih:a2007b8b2c85f366ec8c21ff763e52f5b63df36c&amp;dn=Hoe+tem+je+een+Draak-AC3-XviD-DVDRip%5BNed%5D2010+2Lions-Team&amp;tr=udp%3A%2F%2Ftracker.openbittorrent.com%3A80&amp;tr=udp%3A%2F%2Fopen.demonii.com%3A1337&amp;tr=udp%3A%2F%2Ftracker.coppersurfer.tk%3A6969&amp;tr=udp%3A%2F%2Fexodus.desync.com%3A6969","seeders":5,"leechers":2,"uploader":"FatFreddy31","files":-1,"time":1288395782,"description":"Verenigde Staten\nAnimatie / Avontuur\n98 minuten\n\nAlternatieve titel: How to Train Your Dragon \n\ngeregisseerd door Dean DeBlois en Chris Sanders\nmet de stemmen van Jay Baruchel, Gerard Butler en America Ferrera\n\nDe jonge viking Hiccup woont op het eiland Berk, waar draken bevechten een manier van leven is. De intelligentie en de eigenwijze humor van de tiener vallen niet in goede aarde bij de stamleden en het stamhoofd... dat niemand minder is dan de vader van Hiccup. Maar wanneer Hiccup samen met andere Vikingjongens drakentraining krijgt, ziet hij zijn kans schoon om te bewijzen dat hij uit het goede hout gesneden is om krijger te worden. Wanneer hij echter een gewonde draak ontmoet, wordt zijn wereld ondersteboven gegooid, en wat begon als de enige gelegenheid voor Hiccup om zichzelf te bewijzen, verandert in een kans op een nieuwe toekomst voor de hele stam...\n &lt;a href=&quot;\nhttp://www.imdb.com/title/tt0892769/&quot; rel=&quot;nofollow&quot; target=&quot;_NEW&quot;&gt;\nhttp://www.imdb.com/title/tt0892769/&lt;/a&gt;\n &lt;a href=&quot;\nhttp://www.moviemeter.nl/film/52147&quot; rel=&quot;nofollow&quot; target=&quot;_NEW&quot;&gt;\nhttp://www.moviemeter.nl/film/52147&lt;/a&gt;\n\nNederlands gesproken.\n\nHoesjes bijgevoegd.\n\nGeneral\nComplete name                    : Hoe tem je een Draak-AC3-XviD-DVDRip[Ned]2010 2Lions-Team\\Hoe tem je een Draak-AC3-XviD-DVDRip[Ned]2010 2Lions-Team.avi\nFormat                           : AVI\nFormat/Info                      : Audio Video Interleave\nFile size                        : 1.36 GiB\nDuration                         : 1h 33mn\nOverall bit rate                 : 2 078 Kbps\nWriting application              : VirtualDubMod 1.5.4.1 (build 2178/release)\nWriting library                  : VirtualDubMod build 2178/release\n\nVideo\nID                               : 0\nFormat                           : MPEG-4 Visual\nFormat profile                   : Simple@L3\nFormat settings, BVOP            : No\nFormat settings, QPel            : No\nFormat settings, GMC             : No warppoints\nFormat settings, Matrix          : Default (H.263)\nCodec ID                         : XVID\nCodec ID/Hint                    : XviD\nDuration                         : 1h 33mn\nBit rate                         : 1 620 Kbps\nWidth                            : 720 pixels\nHeight                           : 304 pixels\nDisplay aspect ratio             : 2.35:1\nFrame rate                       : 25.000 fps\nColor space                      : YUV\nChroma subsampling               : 4:2:0\nBit depth                        : 8 bits\nScan type                        : Progressive\nBits/(Pixel*Frame)               : 0.296\nStream size                      : 1.06 GiB (78%)\nWriting library                  : XviD 1.1.2 (UTC 2006-11-01)\n\nAudio\nID                               : 1\nFormat                           : AC-3\nFormat/Info                      : Audio Coding 3\nMode extension                   : CM (complete main)\nCodec ID                         : 2000\nDuration                         : 1h 33mn\nBit rate mode                    : Constant\nBit rate                         : 448 Kbps\nChannel(s)                       : 6 channels\nChannel positions                : Front: L C R, Side: L R, LFE\nSampling rate                    : 48.0 KHz\nBit depth                        : 16 bits\nStream size                      : 301 MiB (22%)\nAlignment                        : Split accross interleaves\nInterleave, duration             : 40 ms (1.00 video frame)\nInterleave, preload duration     : 500 ms\n\nMet dank aan drentje voor de bron!\n\nBrought to you by Gollum\n\nDON T HIT AND RUN Niet gelijk afhaken als de FILM binnen is blijf seeden. \n\nDon`t quit after you finished the download, but keep seeding\n\nThere are fake torrents from uploaders who use our team name.\nThose are not ours, or members from our team.\nWe 2Lions-Team are not responsible for the fake posts on our name\n\nWij 2Lions-Team zijn niet verantwoordelijk voor die zieke FAKE posten die op onze naam worden gedaan\n\nPlease check our site !!!\n\nto the fakers , get a life !!!","torrent":{"xt":"urn:btih:a2007b8b2c85f366ec8c21ff763e52f5b63df36c","amp;dn":"Hoe+tem+je+een+Draak-AC3-XviD-DVDRip%5BNed%5D2010+2Lions-Team","amp;tr":["udp%3A%2F%2Ftracker.openbittorrent.com%3A80","udp%3A%2F%2Fopen.demonii.com%3A1337","udp%3A%2F%2Ftracker.coppersurfer.tk%3A6969","udp%3A%2F%2Fexodus.desync.com%3A6969"],"infoHash":"a2007b8b2c85f366ec8c21ff763e52f5b63df36c","infoHashBuffer":{"type":"Buffer","data":[162,0,123,139,44,133,243,102,236,140,33,255,118,62,82,245,182,61,243,108]},"announce":[],"urlList":[]}}